<svg width="1004" height="169" viewBox="0 0 1004 169" fill="none" xmlns="http://www.w3.org/2000/svg">
<rect y="28" width="631" height="112" fill="#00529F"/>
<path d="M89.5078 99.8984C88.7109 110.914 84.6328 119.586 77.2734 125.914C69.9609 132.242 60.3047 135.406 48.3047 135.406C35.1797 135.406 24.8438 131 17.2969 122.188C9.79688 113.328 6.04688 101.188 6.04688 85.7656V79.5078C6.04688 69.6641 7.78125 60.9922 11.25 53.4922C14.7188 45.9922 19.6641 40.25 26.0859 36.2656C32.5547 32.2344 40.0547 30.2188 48.5859 30.2188C60.3984 30.2188 69.9141 33.3828 77.1328 39.7109C84.3516 46.0391 88.5234 54.9219 89.6484 66.3594H68.5547C68.0391 59.75 66.1875 54.9688 63 52.0156C59.8594 49.0156 55.0547 47.5156 48.5859 47.5156C41.5547 47.5156 36.2812 50.0469 32.7656 55.1094C29.2969 60.125 27.5156 67.9297 27.4219 78.5234V86.2578C27.4219 97.3203 29.0859 105.406 32.4141 110.516C35.7891 115.625 41.0859 118.18 48.3047 118.18C54.8203 118.18 59.6719 116.703 62.8594 113.75C66.0938 110.75 67.9453 106.133 68.4141 99.8984H89.5078ZM164.953 89.6328H124.453V117.055H171.984V134H103.359V31.625H171.844V48.7109H124.453V73.1094H164.953V89.6328ZM267.609 134H246.516L205.453 66.6406V134H184.359V31.625H205.453L246.586 99.125V31.625H267.609V134ZM360.984 48.7109H329.625V134H308.531V48.7109H277.594V31.625H360.984V48.7109ZM410.977 96.5234H394.172V134H373.078V31.625H411.117C423.211 31.625 432.539 34.3203 439.102 39.7109C445.664 45.1016 448.945 52.7188 448.945 62.5625C448.945 69.5469 447.422 75.3828 444.375 80.0703C441.375 84.7109 436.805 88.4141 430.664 91.1797L452.812 133.016V134H430.172L410.977 96.5234ZM394.172 79.4375H411.188C416.484 79.4375 420.586 78.1016 423.492 75.4297C426.398 72.7109 427.852 68.9844 427.852 64.25C427.852 59.4219 426.469 55.625 423.703 52.8594C420.984 50.0938 416.789 48.7109 411.117 48.7109H394.172V79.4375ZM522.844 112.906H485.859L478.828 134H456.398L494.508 31.625H514.055L552.375 134H529.945L522.844 112.906ZM491.555 95.8203H517.148L504.281 57.5L491.555 95.8203ZM583.031 117.055H627.82V134H561.938V31.625H583.031V117.055Z" fill="white"/>
<path d="M702.938 112.906H665.953L658.922 134H636.492L674.602 31.625H694.148L732.469 134H710.039L702.938 112.906ZM671.648 95.8203H697.242L684.375 57.5L671.648 95.8203ZM795.117 107.141C795.117 103.156 793.711 100.109 790.898 98C788.086 95.8438 783.023 93.5938 775.711 91.25C768.398 88.8594 762.609 86.5156 758.344 84.2188C746.719 77.9375 740.906 69.4766 740.906 58.8359C740.906 53.3047 742.453 48.3828 745.547 44.0703C748.688 39.7109 753.164 36.3125 758.977 33.875C764.836 31.4375 771.398 30.2188 778.664 30.2188C785.977 30.2188 792.492 31.5547 798.211 34.2266C803.93 36.8516 808.359 40.5781 811.5 45.4062C814.688 50.2344 816.281 55.7188 816.281 61.8594H795.188C795.188 57.1719 793.711 53.5391 790.758 50.9609C787.805 48.3359 783.656 47.0234 778.312 47.0234C773.156 47.0234 769.148 48.125 766.289 50.3281C763.43 52.4844 762 55.3437 762 58.9062C762 62.2344 763.664 65.0234 766.992 67.2734C770.367 69.5234 775.312 71.6328 781.828 73.6016C793.828 77.2109 802.57 81.6875 808.055 87.0312C813.539 92.375 816.281 99.0312 816.281 107C816.281 115.859 812.93 122.82 806.227 127.883C799.523 132.898 790.5 135.406 779.156 135.406C771.281 135.406 764.109 133.977 757.641 131.117C751.172 128.211 746.227 124.25 742.805 119.234C739.43 114.219 737.742 108.406 737.742 101.797H758.906C758.906 113.094 765.656 118.742 779.156 118.742C784.172 118.742 788.086 117.734 790.898 115.719C793.711 113.656 795.117 110.797 795.117 107.141ZM853.055 134H831.961V31.625H853.055V134ZM931.734 112.906H894.75L887.719 134H865.289L903.398 31.625H922.945L961.266 134H938.836L931.734 112.906ZM900.445 95.8203H926.039L913.172 57.5L900.445 95.8203ZM970.547 124.016C970.547 120.781 971.625 118.156 973.781 116.141C975.984 114.125 978.727 113.117 982.008 113.117C985.336 113.117 988.078 114.125 990.234 116.141C992.438 118.156 993.539 120.781 993.539 124.016C993.539 127.203 992.461 129.805 990.305 131.82C988.148 133.789 985.383 134.773 982.008 134.773C978.68 134.773 975.938 133.789 973.781 131.82C971.625 129.805 970.547 127.203 970.547 124.016Z" fill="#00529F"/>
</svg>
